<?xml version="1.0" encoding="utf-8"?>
<!-- Generator: Adobe Illustrator 27.0.1, SVG Export Plug-In . SVG Version: 6.00 Build 0)  -->
<svg version="1.1" id="Layer_1" xmlns="http://www.w3.org/2000/svg" xmlns:xlink="http://www.w3.org/1999/xlink" x="0px" y="0px"
	 viewBox="0 0 1920 1080" style="enable-background:new 0 0 1920 1080;" xml:space="preserve">
<style type="text/css">
	.st0{fill:#F48120;}
	.st1{fill:#005DA3;}
</style>
<g>
	<path class="st0" d="M60.1,326.3h60.4c4,0,6.8-3.6,8.5-10.8c1.7-7.2,2.5-17.4,2.5-30.6c0-13.5-0.8-23.8-2.4-30.7
		c-1.7-7-4.5-10.5-8.6-10.5H60.1c-4.5,0-7.5,3.4-9,10.1c-1.5,6.7-2.2,17.1-2.2,31.1c0,13.3,0.9,23.5,2.6,30.7
		C53.3,322.7,56.1,326.3,60.1,326.3"/>
	<g>
		<path class="st1" d="M1356.9,243.7c0.5,1.1,0.2,2.2,0.2,3.4c0,25,0,50,0,74.9c0,4.9,0.7,4.3-4.1,4.3c-91.6,0-183.2,0-274.8,0
			c-2.7,0-5.3,0.1-7.5,2c-1.9,1.7-2.8,3.8-2.8,6.3c0,15-0.1,30.1,0,45.1c0,5.2,3.5,8.3,9,8.3c65.9,0,131.9,0,197.8,0
			c38,0,71,25.6,80,62c1.5,6,2.3,12.1,2.3,18.2c0,22.3,0.1,44.7,0,67c-0.1,38.4-30.8,73.7-68.9,79.3c-4.6,0.7-9.2,1-13.8,1
			c-95.1,0-190.2,0-285.3,0c-3.8,0-3.8,0-3.8-4c0-25,0-50,0-74.9c0-3.7,0-3.7,3.6-3.7c91.4,0,182.8,0,274.2,0c0.9,0,1.7,0,2.6,0
			c6.4-0.2,8.8-2.7,8.9-9.1c0-14.7,0-29.3,0-44c0-6-3.1-9.1-9.1-9.1c-65.6,0-131.1,0.1-196.7,0c-33.8-0.1-58.4-15.8-74.7-44.9
			c-6.1-11-8.7-23.1-8.7-35.7c-0.1-22-0.1-43.9,0-65.9c0.1-39,29.7-73.5,68.4-79.5c1.3-0.2,2.6-0.4,3.9-0.6c1.1-0.6,2.4,0.2,3.4-0.5
			C1159.7,243.7,1258.3,243.7,1356.9,243.7z"/>
		<path class="st1" d="M467.9,244.2c36.2,4,66.9,34.2,71.6,70.4c0.5,3.6,0.7,7.2,0.7,10.7c0,21.3,0,42.6,0,63.9
			c0,36.1-24.5,68.6-59.2,78.5c-8,2.3-16.1,3.1-24.4,3.1c-64.6,0-129.2,0-193.9-0.1c-3.1,0-3.6,0.9-3.6,3.7c0.1,46,0,92,0.1,137.9
			c0,2.6-0.7,3.2-3.3,3.2c-25.5-0.1-50.9-0.1-76.4,0c-2.7,0-3.2-0.8-3.2-3.3c0.1-73.7,0.1-147.4,0-221.1c0-2.5,0.6-3.3,3.2-3.3
			c89.2,0.1,178.4,0.1,267.7,0.1c7.5,0,10.3-2.7,10.3-10.2c0-13.8,0-27.6,0-41.4c0-7.8-2.2-10.1-10.2-10.1c-89,0-178.1,0-267.1,0
			c-3.9,0-3.9,0-3.9-4c0-25.2,0-50.3,0-75.5c0-1,0.1-2.1,0.1-3.1c95.9,0,191.9,0,287.8,0C465.5,244.4,466.8,243.6,467.9,244.2z"/>
		<path class="st1" d="M48.9,388.4c26.6,0,53.2,0,79.7-0.1c2.4,0,3,0.6,3,2.9c-0.1,73.8-0.1,147.5,0,221.3c0,2.4-0.6,3-3,2.9
			c-26.6-0.1-53.2-0.1-79.7-0.1C48.9,539.8,48.9,464.1,48.9,388.4z"/>
		<path class="st1" d="M1822,540.9c0-1.2,0-2.3,0-3.4c0-48.9,0-97.8-0.1-146.7c0-2.8,0.7-3.4,3.4-3.4c14.5,0.1,28.9,0.1,43.4,0
			c2.4,0,3.2,0.4,3.2,3c-0.1,72.8-0.1,145.7,0,218.5c0,2.7-0.8,3.2-3.3,3.2c-14.2-0.1-28.4-0.5-42.6,0.1
			c-15.4,0.6-26.9-5.8-35.3-18.2c-12.7-18.7-25.2-37.5-37.8-56.2c-17.2-25.6-34.3-51.2-51.4-76.8c-0.2-0.3-0.4-0.6-0.7-0.9
			c-0.8-0.9-1.8-1.7-2.9-1.3c-1,0.4-0.5,1.7-0.5,2.6c0,49,0,98,0,147c0,4.3,0.5,3.7-3.8,3.7c-14.5,0-28.9,0-43.4,0.1
			c-2.3,0-2.8-0.6-2.8-2.8c0.1-73,0-146.1,0.1-219.1c0-1.3-0.5-2.8,1.9-2.8c15.9,0.1,31.8,0,47.7,0.1c12.5,0,22,5.8,29.6,15.3
			c2,2.5,3.9,5.1,5.7,7.8c28,42,56.1,83.9,84.1,125.9C1817.8,538.4,1818.6,541,1822,540.9z"/>
		<path class="st1" d="M1456,387.4c7.9,0,15.9,0.1,23.8-0.1c2.5-0.1,3.5,0.6,4.4,3.1c14.8,45,29.7,90,44.5,134.9
			c0.8,2.5,2,4.3,4.8,4.3c2.7,0,4.2-1.8,5-4.3c9.7-29.4,19.4-58.8,29.1-88.1c5.3-15.9,10.6-31.9,15.7-47.9c0.6-1.8,1.5-2,3.1-2
			c16.6,0,33.1,0.1,49.7,0c2.6,0,2.7,0.7,1.9,2.9c-17.9,49.9-35.7,99.9-53.5,149.8c-6.2,17.4-12.4,34.8-18.6,52.2
			c-4,11.3-10.9,19.7-23.1,22.3c-18.6,4-34.9-3.4-41.6-22.5c-23.8-67.2-47.7-134.4-71.7-201.6c-1.1-3-1.1-3,2-3
			C1439.5,387.4,1447.8,387.4,1456,387.4z"/>
		<path class="st1" d="M1419.9,612c-7.5,0-14.9-0.1-22.4,0c-1.9,0-2.6-0.3-2.6-2.4c0.1-15.1,0.1-30.3,0-45.4c0-1.7,0.5-2.2,2.2-2.2
			c15.2,0.1,30.5,0.1,45.7,0c1.8,0,2.2,0.6,2.1,2.3c-0.1,15.1-0.1,30.3,0,45.4c0,1.8-0.5,2.4-2.3,2.4
			C1435,612,1427.5,612,1419.9,612z"/>
		<path class="st1" d="M949.5,437.1c0-3.4,0-6.8,0-10.2c0-0.6,0-1.1,0-1.7c0-2,0-4,0-6c-0.2-13.5-0.7-27-1.9-40.5h-0.4
			c-1.3-13.2-3.2-26.3-6.1-39.3c-4.4-19.7-10.7-38.6-21.5-55.8c-16.5-26.1-40-40.7-71.1-40.9c-57.3-0.4-114.6-0.2-171.9,0
			c-17.3,0-33.4,4.9-47.6,15.2c-15.2,11.1-25.3,26.1-32.8,43.1c-11.5,26-16.2,53.5-18.8,81.6c0,0.3,0,0.7-0.1,1l-0.3,0
			c-1,13.2-1.5,26.4-1.5,39.6c0,1,0,1.9,0,2.9c0,2.7,0,5.4,0,8.1c0,1.5,0,3.1,0,4.6h0.1c0,2.5,0.1,5.1,0.1,7.6
			c0.7,24.8,2.8,49.4,8.2,73.6c4.4,19.7,10.7,38.6,21.5,55.8c16.5,26.1,40,40.7,71.1,40.9c57.3,0.4,114.6,0.2,171.9,0
			c17.3,0,33.4-4.9,47.6-15.2c15.2-11.1,25.3-26.1,32.8-43.1c11.5-26,16.2-53.5,18.8-81.6c1.2-12.7,1.7-25.4,1.9-38.1h0
			C949.5,438.1,949.5,437.6,949.5,437.1z M856.8,512.3c-1.4,4.8-3.2,9.3-6.1,13.5c-3.6,5.2-8.4,7.9-14.9,7.8
			c-24.5-0.1-48.9,0-73.4,0c-24.1,0-48.2-0.1-72.2,0.1c-7.4,0.1-12.6-3-16.4-9c-4.7-7.5-6.7-15.9-8.4-24.4
			c-3.2-16.3-4.3-32.8-4.8-49.3c-0.3-10.3-0.5-20.6-0.4-30.9c0.1-6.1,0.3-12.2,0.6-18.3c0.9-18.4,2.2-36.8,7.3-54.7
			c1.4-4.8,3.2-9.3,6.1-13.5c3.6-5.2,8.4-7.9,14.9-7.8c24.5,0.1,48.9,0,73.4,0c24.1,0,48.2,0.1,72.2-0.1c7.4-0.1,12.6,3,16.4,9
			c4.7,7.5,6.7,15.9,8.4,24.4c3.2,16.3,4.3,32.8,4.8,49.3c0.3,9.7,0.4,19.5,0.4,29.2c-0.1,6.7-0.2,13.3-0.6,20
			C863.3,476,861.9,494.4,856.8,512.3z"/>
	</g>
	<g>
		<path class="st0" d="M132.5,798.3c-0.5-12.4-1.1-27.3-1.1-40.6H131c-3.4,11.6-7.8,24.5-12.3,37.2l-14.9,40.6H89.8l-13.3-40.3
			c-4-12.6-7.5-25.4-10.3-37.5H66c-0.4,12.6-1,28.2-1.8,41.1l-2.2,37.7H45.4l6.2-92.1h24.3l13,36.9c3.6,10.5,6.7,21.9,9,32.1h0.4
			c2.7-10,6.3-21.7,10.3-32.3l14.1-36.8h23.9l5.2,92.1h-17.5L132.5,798.3z"/>
		<path class="st0" d="M189.3,809.7l-8.9,26.8H162l32.7-92.1h22.8l33.6,92.1h-19.4l-9.4-26.8H189.3z M219,796.6l-8.3-23.2
			c-2.1-5.6-3.7-11.1-5.2-16h-0.3c-1.4,4.9-2.9,10.5-4.6,16l-8.1,23.2H219z"/>
		<path class="st0" d="M264.5,744.4H282v42.4h0.4c2.3-3.4,4.9-6.6,7.2-9.4l27.3-32.9h22.3l-35.1,39l37.7,53.2h-20.9l-29.5-42.6
			l-9.4,10.5v32.1h-17.5V744.4z"/>
		<path class="st0" d="M407.3,796.1h-39v26.2h43.5v14.2h-61.1v-92.1h58.9v14.2h-41.3v23.2h39V796.1z"/>
		<path class="st0" d="M457.8,744.4h58.5v14.2h-40.9v24.7h37.9v14.2h-37.9v39h-17.6V744.4z"/>
		<path class="st0" d="M596.5,836.5c-2.6-2.3-4.9-4.9-7.9-7.8c-7.5,6-16.5,9.4-28,9.4c-22,0-32.5-13-32.5-26.1
			c0-13,7.9-21.6,18.9-26.9v-0.5c-4.2-4.6-7.5-11.3-7.5-17.8c0-11.3,9-24.1,27.3-24.1c13.9,0,24.5,8.2,24.5,20.9
			c0,9.7-6.3,17.6-20.2,23.8v0.5c7.2,7.8,14.5,15.4,19.5,20.5c4.2-5.7,7.7-13.9,9.6-24.7h16c-3,15-7.5,26.4-15.6,35.1
			c6,6.4,11.3,12.2,16.9,17.6H596.5z M579.9,818.9c-5.3-4.9-14.9-14.8-24.7-25.3c-4.6,2.9-10.3,7.5-10.3,15.4
			c0,9.2,7.4,16.3,18.3,16.3C570.1,825.3,576.2,822.4,579.9,818.9z M555.4,764.9c0,5.5,2.9,10.1,7.2,14.6
			c8.3-4.9,13.4-8.7,13.4-15.3c0-5.1-3.3-10.4-10.1-10.4C559.1,753.8,555.4,759.3,555.4,764.9z"/>
		<path class="st0" d="M627.8,745.6c5.6-1.1,16.4-2,26.8-2c13.7,0,21.3,1.6,27.7,5.6c6.2,3.4,10.5,9.3,10.5,17.8
			c0,8.3-5.5,16.1-15.9,19.7v0.4c9.4,2.2,19.3,9.6,19.3,22.8c0,8.3-4,14.8-9.6,19.3c-7,5.5-18.3,8.3-36.4,8.3
			c-10.3,0-17.9-0.7-22.6-1.2V745.6z M645.3,781.9h10.1c13,0,19.7-5.3,19.7-13c0-9-7.5-12.4-18.7-12.4c-5.9,0-9,0.4-11.1,0.8V781.9z
			 M645.3,823.9c2.5,0.4,5.7,0.4,10.3,0.4c11.5,0,22.1-3.6,22.1-15.2c0-10.7-10.1-14.8-22.7-14.8h-9.7V823.9z"/>
		<path class="st0" d="M742.6,745.6c5.6-1.1,16.4-2,26.8-2c13.7,0,21.3,1.6,27.7,5.6c6.2,3.4,10.5,9.3,10.5,17.8
			c0,8.3-5.5,16.1-15.9,19.7v0.4c9.4,2.2,19.3,9.6,19.3,22.8c0,8.3-4,14.8-9.6,19.3c-7,5.5-18.3,8.3-36.4,8.3
			c-10.3,0-17.9-0.7-22.6-1.2V745.6z M760.1,781.9h10.1c13,0,19.7-5.3,19.7-13c0-9-7.5-12.4-18.7-12.4c-5.9,0-9,0.4-11.1,0.8V781.9z
			 M760.1,823.9c2.5,0.4,5.7,0.4,10.3,0.4c11.5,0,22.1-3.6,22.1-15.2c0-10.7-10.1-14.8-22.7-14.8h-9.7V823.9z"/>
		<path class="st0" d="M844.5,744.4v51.4c0,19,8.3,28.6,21.7,28.6c14.1,0,22.3-9.4,22.3-28.6v-51.4h17.6v50.7
			c0,29.9-16.4,43.1-40.7,43.1c-22.8,0-38.5-12.2-38.5-43.1v-50.7H844.5z"/>
		<path class="st0" d="M926.8,817.3c6,3.4,15,6.6,24.9,6.6c11.3,0,17.6-4.9,17.6-12.4c0-6.8-4.6-10.9-17.6-14.8
			c-16.9-5.1-27.5-12.8-27.5-27.2c0-15.3,13.5-26.7,34.4-26.7c11.3,0,19.3,2.3,24.9,4.9l-4.5,13.9c-3.7-1.8-10.9-4.8-20.8-4.8
			c-11.5,0-16.1,5.7-16.1,11.1c0,7.1,5.9,10.4,19.1,14.6c17.4,5.6,26.1,13.4,26.1,27.7c0,14.2-10.9,27.9-37.2,27.9
			c-10.7,0-21.7-3-27.5-6.6L926.8,817.3z"/>
		<path class="st0" d="M1021.2,744.4v92.1h-17.6v-92.1H1021.2z"/>
		<path class="st0" d="M1041.4,836.5v-92.1h21.1l26.7,39.6c7.1,10.8,12.7,21.1,17.4,31.4l0.4-0.1c-1.4-12.3-1.5-23.5-1.5-36.8v-34.2
			h16.4v92.1h-18.7l-26.9-41c-6.7-10.7-13.5-21.9-18.6-32.5l-0.5,0.1c0.7,12.3,0.8,24.2,0.8,38v35.4H1041.4z"/>
		<path class="st0" d="M1198.7,796.1h-39v26.2h43.5v14.2h-61.1v-92.1h58.9v14.2h-41.3v23.2h39V796.1z"/>
		<path class="st0" d="M1219.2,817.3c6,3.4,15,6.6,24.9,6.6c11.3,0,17.6-4.9,17.6-12.4c0-6.8-4.6-10.9-17.6-14.8
			c-16.9-5.1-27.5-12.8-27.5-27.2c0-15.3,13.5-26.7,34.4-26.7c11.3,0,19.3,2.3,24.9,4.9l-4.5,13.9c-3.7-1.8-10.9-4.8-20.8-4.8
			c-11.5,0-16.1,5.7-16.1,11.1c0,7.1,5.9,10.4,19.1,14.6c17.4,5.6,26.1,13.4,26.1,27.7c0,14.2-10.9,27.9-37.2,27.9
			c-10.7,0-21.7-3-27.5-6.6L1219.2,817.3z"/>
		<path class="st0" d="M1296.4,817.3c6,3.4,15,6.6,24.9,6.6c11.3,0,17.6-4.9,17.6-12.4c0-6.8-4.6-10.9-17.6-14.8
			c-16.9-5.1-27.5-12.8-27.5-27.2c0-15.3,13.5-26.7,34.4-26.7c11.3,0,19.3,2.3,24.9,4.9l-4.5,13.9c-3.7-1.8-10.9-4.8-20.8-4.8
			c-11.5,0-16.1,5.7-16.1,11.1c0,7.1,5.9,10.4,19.1,14.6c17.4,5.6,26.1,13.4,26.1,27.7c0,14.2-10.9,27.9-37.2,27.9
			c-10.7,0-21.7-3-27.5-6.6L1296.4,817.3z"/>
		<path class="st0" d="M1403.7,745.6c5.6-1.1,16.4-2,26.8-2c13.7,0,21.3,1.6,27.7,5.6c6.1,3.4,10.5,9.3,10.5,17.8
			c0,8.3-5.5,16.1-15.9,19.7v0.4c9.4,2.2,19.3,9.6,19.3,22.8c0,8.3-4,14.8-9.6,19.3c-7,5.5-18.3,8.3-36.4,8.3
			c-10.3,0-17.9-0.7-22.6-1.2V745.6z M1421.2,781.9h10.1c13,0,19.7-5.3,19.7-13c0-9-7.5-12.4-18.7-12.4c-5.9,0-9,0.4-11.1,0.8V781.9
			z M1421.2,823.9c2.5,0.4,5.7,0.4,10.3,0.4c11.5,0,22.1-3.6,22.1-15.2c0-10.7-10.1-14.8-22.7-14.8h-9.7V823.9z"/>
		<path class="st0" d="M1544.6,796.1h-39v26.2h43.5v14.2H1488v-92.1h58.9v14.2h-41.3v23.2h39V796.1z"/>
		<path class="st0" d="M1586.7,758.8h-29.5v-14.4h76.9v14.4h-29.8v77.8h-17.6V758.8z"/>
		<path class="st0" d="M1669.7,758.8h-29.5v-14.4h76.9v14.4h-29.8v77.8h-17.6V758.8z"/>
		<path class="st0" d="M1784.5,796.1h-39v26.2h43.5v14.2H1728v-92.1h58.9v14.2h-41.3v23.2h39V796.1z"/>
		<path class="st0" d="M1804.6,745.6c6.8-1.1,17.2-2,28.3-2c14.4,0,23.8,2.5,30.2,7.7c5.1,4,8.3,10.5,8.3,18.5
			c0,12.3-9,20.2-17.5,23v0.4c6.7,2.6,10.8,9,13.1,17.4c3.3,11.5,5.9,22.4,7.9,26.1h-18c-1.5-2.7-3.8-9.8-6.7-21.6
			c-3-11.9-7.7-15.9-18-16.1h-10.1v37.7h-17.5V745.6z M1822.1,786.1h12c12.3,0,19.8-5.7,19.8-14.9c0-10.3-8.2-14.5-19.5-14.5
			c-6.6,0-10.4,0.4-12.3,1V786.1z"/>
	</g>
</g>
</svg>
